HIERARCHY
ROOT Hips
{
	OFFSET -0.179506 -22.333345 2.821913
	CHANNELS 6 Xposition Yposition Zposition Zrotation Yrotation Xrotation 
	JOINT LeftUpLeg
	{
		OFFSET 6.951974 -9.140623 -0.681533
		CHANNELS 3 Zrotation Yrotation Xrotation
		JOINT LeftLeg
		{
			OFFSET 3.427654 -37.519855 -0.449580
			CHANNELS 3 Zrotation Yrotation Xrotation
			JOINT LeftFoot
			{
				OFFSET -1.359570 -39.796059 -4.369333
				CHANNELS 3 Zrotation Yrotation Xrotation
				JOINT LeftToe
				{
					OFFSET 2.635814 -5.579078 11.928840
					CHANNELS 3 Zrotation Yrotation Xrotation
					End Site
					{
						OFFSET 0.000000 0.000000 0.000000
					}
				}
			}
		}
	}
	JOINT RightUpLeg
	{
		OFFSET -6.767048 -9.052170 -0.431982
		CHANNELS 3 Zrotation Yrotation Xrotation
		JOINT RightLeg
		{
			OFFSET -3.829005 -38.256897 -0.885003
			CHANNELS 3 Zrotation Yrotation Xrotation
			JOINT RightFoot
			{
				OFFSET 1.577377 -39.841461 -4.231180
				CHANNELS 3 Zrotation Yrotation Xrotation
				JOINT RightToe
				{
					OFFSET -2.537174 -4.814398 12.334795
					CHANNELS 3 Zrotation Yrotation Xrotation
					End Site
					{
						OFFSET 0.000000 0.000000 0.000000
					}
				}
			}
		}
	}
	JOINT Spine
	{
		OFFSET -0.253288 10.896323 -2.669631
		CHANNELS 3 Zrotation Yrotation Xrotation
		JOINT Spine1
		{
			OFFSET 0.548704 13.518043 0.109247
			CHANNELS 3 Zrotation Yrotation Xrotation
			JOINT Spine2
			{
				OFFSET 0.145701 5.292222 2.542457
				CHANNELS 3 Zrotation Yrotation Xrotation
				JOINT Neck
				{
					OFFSET -0.277840 21.387037 -4.285703
					CHANNELS 3 Zrotation Yrotation Xrotation
					JOINT Head
					{
						OFFSET 0.515184 6.496960 5.134897
						CHANNELS 3 Zrotation Yrotation Xrotation
						End Site
						{
							OFFSET 0.000000 0.000000 0.000000
						}
					}
				}
				JOINT LeftShoulder
				{
					OFFSET 7.884473 12.174932 -3.408961
					CHANNELS 3 Zrotation Yrotation Xrotation
					JOINT LeftArm
					{
						OFFSET 9.097692 3.046888 -0.886815
						CHANNELS 3 Zrotation Yrotation Xrotation
						JOINT LeftForeArm
						{
							OFFSET 25.961220 -1.277207 -2.745643
							CHANNELS 3 Zrotation Yrotation Xrotation
							JOINT LeftHand
							{
								OFFSET 24.923361 0.898606 -0.117091
								CHANNELS 3 Zrotation Yrotation Xrotation
								End Site
								{
									OFFSET 0.000000 0.000000 0.000000
								}
							}
						}
					}
				}
				JOINT RightShoulder
				{
					OFFSET -8.175920 11.883285 -3.861528
					CHANNELS 3 Zrotation Yrotation Xrotation
					JOINT RightArm
					{
						OFFSET -9.601238 3.255117 -0.914307
						CHANNELS 3 Zrotation Yrotation Xrotation
						JOINT RightForeArm
						{
							OFFSET -25.374195 -1.332924 -2.140099
							CHANNELS 3 Zrotation Yrotation Xrotation
							JOINT RightHand
							{
								OFFSET -25.529810 0.777228 -0.555919
								CHANNELS 3 Zrotation Yrotation Xrotation
								End Site
								{
									OFFSET 0.000000 0.000000 0.000000
								}
							}
						}
					}
				}
			}
		}
	}
}
MOTION
Frames: 9
Frame Time: 0.033333
76.744820 10.278336 59.197842 -160.735731 -3.219268 93.110953 12.803408 0.860647 -30.082569 -18.760516 8.355195 111.441670 -2.452220 3.206371 -27.228930 nan nan nan -12.783455 -10.016850 -74.573646 -6.952638 -19.720862 105.926151 -7.570572 -15.934507 -36.846485 nan nan nan 5.608653 -8.245617 46.992805 1.222790 6.338003 -3.716899 1.458356 2.378808 3.732373 -0.814079 -8.407423 1.401111 5.979464 -11.269936 -19.810285 -20.052228 -5.397670 2.546084 -52.728621 9.165182 15.695911 4.608535 -25.090473 13.796935 -9.654999 -23.576787 -7.121585 21.684032 23.869826 3.519495 25.718807 10.224330 -3.037551 -9.426177 36.799332 -2.871121 -0.873917 16.462821 -1.619814 
76.735237 10.143819 58.747585 -160.954203 -3.110383 93.038258 12.952814 0.946753 -30.002595 -18.771384 8.512560 112.008099 -2.465389 3.099612 -27.836102 nan nan nan -12.722869 -10.151670 -75.130980 -7.025086 -19.708682 106.602132 -7.747954 -15.694588 -36.922407 nan nan nan 5.465576 -8.133295 47.127225 1.257259 6.592386 -3.620316 1.495623 2.449431 3.653610 -0.796699 -8.344311 1.372234 5.925285 -11.416178 -19.786063 -20.068910 -5.344549 2.519907 -52.780901 9.095698 15.833523 4.537307 -25.014328 13.924097 -9.659257 -23.624679 -6.846265 21.748694 23.818903 3.578356 25.505194 10.144122 -3.017213 -9.311702 36.826619 -2.736436 -0.917359 16.708765 -1.638284 
76.708122 10.033263 58.297649 -161.037806 -2.933192 92.850135 13.100975 0.943880 -29.812313 -18.854741 8.618432 112.573093 -2.539678 3.220106 -28.475735 nan nan nan -12.713801 -10.376474 -75.512698 -7.026595 -19.844370 107.323747 -7.787020 -15.470345 -37.026261 nan nan nan 5.499987 -8.149268 47.268525 1.283908 6.804056 -3.464335 1.478296 2.473331 3.599759 -0.773578 -8.380400 1.388686 5.846235 -11.488371 -19.744363 -20.183702 -5.329083 2.585968 -52.665019 9.069441 15.944641 4.424463 -25.116720 14.036040 -9.395339 -23.531576 -6.858343 21.819045 23.800211 3.578381 25.228962 10.040157 -3.009390 -9.082968 36.799626 -2.479504 -1.052980 16.741527 -1.584890 
76.643158 9.914148 57.841888 -160.984780 -2.826548 92.697256 13.113807 0.690517 -29.683334 -18.961875 8.783592 113.134857 -2.541409 3.340301 -29.124492 nan nan nan -12.830403 -10.762728 -75.868191 -6.954405 -20.004435 108.028073 -7.758282 -15.341351 -37.202299 nan nan nan 5.722173 -8.258320 47.338118 1.238753 6.739320 -3.382255 1.358308 2.431894 3.610483 -0.782894 -8.441892 1.389084 5.861653 -11.370695 -19.692098 -20.286582 -5.309421 2.598991 -52.564446 9.230454 15.921963 4.410218 -25.312567 14.064438 -9.253306 -23.473172 -6.794884 21.989032 23.912402 3.731856 24.880211 9.972610 -3.095654 -8.787361 36.744561 -2.052225 -1.217983 16.713022 -1.080107 
76.593613 9.757377 57.400200 -160.925686 -2.734777 92.636477 13.172194 0.411984 -29.709801 -19.095081 8.987230 113.690929 -2.440096 3.305249 -29.684657 nan nan nan -12.968583 -11.158810 -76.326439 -6.934204 -20.226559 108.693876 -7.796659 -15.209714 -37.303943 nan nan nan 5.982523 -8.288818 47.366068 1.208621 6.605244 -3.364506 1.226089 2.377473 3.600592 -0.749250 -8.486804 1.309192 5.815527 -11.242148 -19.591077 -20.289846 -5.193677 2.507549 -52.536169 9.345729 15.977425 4.347620 -25.408203 14.217835 -9.380544 -23.426392 -6.561184 22.137355 23.946541 3.809127 24.598083 10.026986 -3.131007 -8.552207 36.588113 -1.784758 -1.163811 16.713714 -0.421317 
76.703026 9.647583 57.012665 -161.387873 -2.480559 92.384152 13.595389 0.799143 -29.306954 -19.406250 9.057655 114.109899 -2.427290 2.958795 -30.149149 nan nan nan -12.720846 -10.779855 -76.731140 -7.043275 -20.331921 109.290823 -7.860791 -15.233469 -37.395871 nan nan nan 5.503155 -8.057329 47.998442 1.215914 7.120540 -3.485894 1.366237 2.519042 3.535744 -0.601778 -8.112025 1.172908 5.733694 -11.487887 -19.570271 -20.170922 -5.035377 2.416255 -52.555809 9.273417 16.291575 4.307947 -25.349117 14.336747 -9.347464 -23.565175 -6.682787 22.241616 23.933817 3.795111 24.473467 10.091738 -2.848365 -8.676819 36.333903 -1.627589 -1.421408 16.922323 -0.849280 
76.849876 9.660559 55.898964 -161.492753 -3.530662 93.764099 13.168506 0.714145 -31.089612 -19.744136 9.933970 114.793166 -1.924785 2.858366 -30.240238 nan nan nan -13.831483 -11.429200 -79.717809 -7.523627 -20.300431 111.213999 -7.811088 -14.817258 -37.435376 nan nan nan 3.791469 -6.774313 44.693887 2.073933 6.684130 -0.617277 2.054840 2.731212 1.764933 -1.853540 -8.797286 3.298758 6.947856 -10.423820 -20.789712 -20.806084 -5.074647 3.537382 -51.876270 9.663062 15.790935 3.909367 -26.017290 14.231190 -9.616070 -22.703012 -5.898738 22.918397 23.756642 5.429273 24.004906 10.152157 -3.424902 -8.559514 36.308585 -1.321000 -1.817531 17.232697 -1.026506 
76.815491 9.609065 55.398300 -161.527315 -3.549511 93.468752 13.148071 0.649840 -30.818167 -20.165988 10.012544 115.144779 -1.898492 2.737882 -30.451083 nan nan nan -14.110804 -11.599889 -79.976534 -7.610996 -20.314738 112.090369 -7.704872 -14.655813 -37.620581 nan nan nan 3.460706 -6.804178 45.087289 2.048094 6.741685 -0.866249 2.230602 2.918979 1.924910 -2.100022 -8.819533 3.641381 7.232354 -10.352903 -21.284206 -20.667663 -5.087708 3.661701 -52.104445 9.555563 15.641227 3.769694 -25.875455 14.488958 -9.341127 -23.010716 -6.007505 22.867966 23.884313 5.887237 23.752725 10.141324 -3.899356 -8.288188 36.294151 -0.789141 -1.964379 17.339863 -0.901992 
76.809448 9.526661 54.931618 -161.549611 -3.487317 93.164528 13.218295 0.618646 -30.620334 -20.517587 10.049280 115.631369 -1.893804 2.588094 -30.716645 nan nan nan -14.168123 -11.750737 -80.249758 -7.681282 -20.297916 112.810740 -7.649832 -14.618533 -37.767578 nan nan nan 3.293665 -6.816229 45.544819 1.995705 6.851868 -1.236862 2.333627 3.027005 2.237950 -2.096798 -8.850168 3.675847 7.382370 -10.370629 -21.517301 -20.432567 -5.108917 3.655383 -52.352937 9.471487 15.609529 3.656240 -25.839639 14.936170 -9.101881 -23.012451 -5.991700 22.749730 23.956145 6.050845 23.594250 10.156090 -4.210586 -7.994140 36.229754 -0.386292 -2.331168 17.288099 -0.874624 
